<svg xmlns="http://www.w3.org/2000/svg" viewBox="0 0 120 120">
    <path fill="#5c4337" d="M0 0h120v120H0z"/>
    <path fill-rule="evenodd" fill="#fff"
          d="M81.8 26.4c1.9 0 3.4 1.5 3.4 3.4s-1.5 3.4-3.4 3.4-3.4-1.5-3.4-3.4c0-1.8 1.5-3.4 3.4-3.4zm.9 29.7c2.9 4.4 6.7 5.7 11.5 2.8.2 1.7.2 3.3.1 5-1 18.9-17 33.4-35.9 32.5-18.9-1-33.4-17-32.5-35.9.9-18.9 17.6-33.6 36.5-32.6-1.7 5.2-.3 9.9 4 11.5-3.9 12.3 4.8 20.4 16.3 16.7zM43 53.7c2.8 0 5.1 2.3 5.1 5.1s-2.3 5.1-5.1 5.1-5.1-2.3-5.1-5.1 2.3-5.1 5.1-5.1zm16.1 6.5a3 3 0 013 3 3 3 0 01-3 3 3 3 0 01-3-3c.1-1.7 1.4-3 3-3zM46.3 72.3c2 0 3.6 1.6 3.6 3.6s-1.6 3.6-3.6 3.6-3.6-1.6-3.6-3.6c0-1.9 1.6-3.6 3.6-3.6zm7.8-27.5a2.8 2.8 0 110 5.6 2.8 2.8 0 01-2.8-2.8c-.1-1.5 1.2-2.8 2.8-2.8zm15.3 28.8a4.7 4.7 0 11.01 9.39 4.7 4.7 0 01-.01-9.39zm9.9-34c1.8 0 3.2 1.4 3.2 3.2 0 1.8-1.4 3.2-3.2 3.2-1.8 0-3.2-1.4-3.2-3.2.1-1.8 1.5-3.2 3.2-3.2z"/>
</svg>
